<?xml version="1.0" encoding="UTF-8"?>
<svg width="86px" height="98px" viewBox="0 0 86 98" version="1.1" xmlns="http://www.w3.org/2000/svg" xmlns:xlink="http://www.w3.org/1999/xlink">
    <!-- Generator: Sketch 46 (44423) - http://www.bohemiancoding.com/sketch -->
    <title>Combined Shape</title>
    <desc>Created with Sketch.</desc>
    <defs></defs>
    <g id="Page-1" stroke="none" stroke-width="1" fill="none" fill-rule="evenodd">
        <path d="M84.3001093,51.0320373 L3.70002278,97.5678849 C2.74344455,98.1201818 1.52025957,97.792447 0.967962665,96.8358688 C0.792417827,96.5318251 0.700000763,96.1869287 0.700000763,95.8358468 L0.700000763,2.76415169 C0.700000763,1.65958219 1.59543126,0.764151692 2.70000076,0.764151692 C3.05108271,0.764151692 3.39597912,0.856568757 3.70002278,1.03211359 L84.3001093,47.5679611 L84.3001093,47.5679611 C85.2566875,48.120258 85.5844223,49.343443 85.0321254,50.3000213 C84.8565935,50.6040425 84.6041306,50.8565054 84.3001093,51.0320373 L84.3001093,51.0320373 Z M36,37.875 L39.4700011,40.0437507 C39.6289327,40.1430829 39.8125803,40.1957524 40,40.1957524 C40.5522847,40.1957524 41,39.7480371 41,39.1957524 L41,33.1084953 C41,32.4189152 40.6447606,31.7779754 40.0599979,31.4124987 L34.5299989,27.9562493 C34.3710673,27.8569171 34.1874197,27.8042476 34,27.8042476 C33.4477153,27.8042476 33,28.2519629 33,28.8042476 L33,61.3159718 C31.6304021,60.4925387 29.8918934,60 28,60 C23.581722,60 20,62.6862915 20,66 C20,69.3137085 23.581722,72 28,72 C32.418278,72 36,69.3137085 36,66 L36,37.875 Z" id="Combined-Shape" fill="#FFFFFF"></path>
    </g>
</svg>